<?xml version="1.0" encoding="UTF-8"?>
<!DOCTYPE svg PUBLIC "-//W3C//DTD SVG 1.1//EN" "http://www.w3.org/Graphics/SVG/1.1/DTD/svg11.dtd">
<!-- Creator: CorelDRAW -->
<svg xmlns="http://www.w3.org/2000/svg" xml:space="preserve" width="200mm" height="47.4847mm" version="1.1" style="shape-rendering:geometricPrecision; text-rendering:geometricPrecision; image-rendering:optimizeQuality; fill-rule:evenodd; clip-rule:evenodd"
viewBox="0 0 16864.71 4004.08"
 xmlns:xlink="http://www.w3.org/1999/xlink"
 xmlns:xodm="http://www.corel.com/coreldraw/odm/2003">
 <defs>
  <style type="text/css">
   <![CDATA[
    .fil0 {fill:white}
   ]]>
  </style>
 </defs>
 <g id="Camada_x0020_1">
  <metadata id="CorelCorpID_0Corel-Layer"/>
  <path class="fil0" d="M10720.99 625.93c-37.27,-7.92 -70.54,-10.62 -107.34,-24.27 -136.63,-50.67 -210.21,-212.24 -163.5,-349.54 40.13,-117.94 114.1,-203.42 235.98,-239.67 172.39,-51.25 350.19,61.1 376.34,239.33 23.72,161.63 -74.97,304.09 -223.42,361.5 -32.59,12.6 -67.11,9.92 -101.17,13.52l-8.52 0.9 -8.38 -1.78zm-7335.94 2024.27c-83.14,127.37 -181.43,242.69 -301.05,337.62 -135.27,107.35 -294.75,149.75 -465.7,128.43 -74.57,-9.3 -145.73,-37.33 -202.66,-87.14 -72.94,-63.79 -109.95,-148.79 -122.86,-243.52 -12.71,-93.33 -0.03,-186.49 26.26,-276.35 38.47,-131.47 80.67,-261.8 124.21,-391.66 26.52,-79.15 60.67,-155.47 87.31,-234.54 43.72,-129.81 97.33,-260.59 114.01,-397.49 5.46,-44.85 6.42,-90.78 2.24,-135.77 -4.08,-44.05 -30.16,-75.11 -74.42,-82.22 -75.21,-12.1 -137.28,18 -194.67,64.15 -86.82,69.83 -150.03,163.7 -210.31,256.11 -102.47,157.14 -175.31,331.25 -245.09,504.66 -79.84,198.38 -139.52,403.91 -190.58,611.36 -22.15,90.02 -45.19,179.83 -67.6,269.78 -20.1,80.61 -56.49,107.01 -138.63,109.17 -96.41,2.54 -192.73,7.06 -289.13,9.92 -23.28,0.68 -46.02,-3.05 -69.12,-4.92l-56.6 -4.57 7.47 -56.31c2.43,-18.19 3.01,-36.01 7.93,-53.91 45.86,-166.49 92.66,-332.73 138.38,-499.26 36.54,-133.21 72.04,-266.7 107.87,-400.09 29.07,-108.24 60.78,-215.86 86.02,-325.09 18.53,-80.27 28.48,-162.46 42.06,-243.67 1.99,-11.89 3.99,-24.2 4.39,-36.25 1.22,-37.66 6.73,-79 2.03,-116.28 -10.01,-79.11 -49.29,-98.43 -124.98,-81.79 -63.79,14.02 -114.01,48.73 -160.29,93.52 -113.1,109.38 -193.61,242.59 -261.79,383.22 -44.06,90.85 -92.38,179.85 -132.7,272.49 -35.64,81.82 -64.99,166.28 -93.19,250.92 -33.52,100.64 -65.45,201.86 -93.03,304.32 -33.89,125.94 -62.44,253.23 -93.25,379.95 -2.37,9.74 -4.45,19.47 -7.31,29.09 -23.5,79.03 -49.18,96.42 -130.64,98.75 -99.86,2.86 -199.68,6.83 -299.49,11.21 -90.12,3.96 -125.93,-37.76 -103.67,-126.02 22.28,-88.32 47,-175.98 70.27,-264.03 34.84,-131.68 70.42,-263.17 103.78,-395.25 36.87,-145.94 73.5,-291.96 106.71,-438.79 27.43,-121.18 52.85,-242.9 73.03,-365.52 8.38,-50.97 5.84,-104.91 2.05,-156.26 -3.6,-48.85 -32.87,-73.1 -80.07,-79.88 -14.91,-2.13 -29.89,-3.82 -44.85,-5.72l-38.25 -4.86 -7.8 -37.78c-18.69,-90.7 1.9,-136.72 93.68,-161.21 157.12,-41.93 317.29,-78.83 467.46,-142.58 32.66,-13.83 67.77,-22.77 102.84,-27.78 78.84,-11.24 129.47,36.2 117.97,116.07 -15.54,108 -27.18,216.6 -54.2,322.56 -11.07,43.42 -22.71,86.67 -34.72,129.83 1.33,-2.33 2.68,-4.64 4.03,-6.95 82.65,-142.15 182.37,-273.65 304.62,-384.16 92.14,-83.27 200.97,-139.12 322.44,-165.19 109.34,-23.45 214.95,-18.1 319.55,22.68 94.39,36.81 147.59,109.89 180.63,202.53 30.26,84.77 35.25,171 30.5,258.48 27.77,-43.69 57.18,-86.37 89,-127.53 97.79,-126.55 209.63,-234.79 354.51,-305.89 137.65,-67.59 284.17,-86.39 431.84,-40.87 108.46,33.4 183.66,112.23 222.89,217.58 21.24,57.14 30.02,115.86 32.51,176.56 6.49,159.89 -25.81,313.54 -78.49,463.74 -52.24,148.98 -112.51,295.13 -162.35,444.96 -48.03,144.37 -98.99,290.4 -116.59,442.33 -2.67,23.19 -4.66,48.82 -0.83,71.93 8.39,50.61 50.3,75.98 99.6,64.77 68.27,-15.52 123.56,-57.39 172.27,-105.87 92.56,-92.14 167.93,-198.88 233.86,-311.25 20.71,-35.3 29.47,-73.27 34.62,-113.49 11.13,-87.04 30.33,-172.66 43.48,-259.34 18.62,-122.93 60,-239.13 114.35,-350.58 39.05,-80.1 78.41,-160.25 126.67,-235.37 86.8,-135.07 194.17,-254.38 324.81,-348.34 116.13,-83.53 242.01,-145.02 384.26,-168.09 101.45,-16.46 201.8,-20.03 302.56,3.23 111.37,25.72 201.15,88.24 264.17,183.44 18.89,28.52 36.71,57.15 51.82,86.88 27.28,-72.29 84.94,-116.62 158.42,-150.3 56.07,-25.69 110.52,-54.75 166.59,-80.5 35.4,-16.28 71.62,-30.99 109.03,-42.03 76.96,-22.73 134.56,20.99 131.89,101.41 -0.82,25.06 -6.23,50.07 -14.13,73.8 -19.97,60.04 -43.07,119.05 -62.31,179.31 -59.06,184.96 -119.45,369.52 -174.32,555.79 -41.07,139.42 -81.78,279.49 -109.25,422.35 -27.04,140.71 -62.87,283.08 -64.19,427.08 -0.25,28.26 -0.53,58.5 5.22,86.2 7.71,37.3 38.53,54.31 74.9,45.44 73.45,-17.89 134.97,-54.11 186.19,-109.78 119.37,-129.78 217.96,-275.64 300.1,-431.42 57.97,-109.9 109.19,-223.2 160.93,-336.11 11.25,-24.55 15.3,-58.58 21.93,-85.17 37.21,-149.57 77.8,-301.8 69.68,-457.44 -1.53,-29.21 -6.83,-56.34 -28.67,-77.3 -12.11,-11.65 -25.71,-23.56 -43.48,-23.34 -56.8,0.76 -101.63,-21.45 -105.48,-85.47 -3.45,-57.6 22.61,-104.18 78.87,-122.55 20.58,-6.7 41.02,-9.16 61.64,-14.53 145.93,-37.83 291.34,-78.95 432.04,-133.41 33.06,-12.78 68.36,-20.71 103.54,-24.73 77.3,-8.79 125.07,35.27 118.93,113.53 -4.17,52.88 -13.76,105.07 -24.12,157.03 -12.97,65.02 -27.77,129.68 -43.79,194.02 -8.21,33.03 -16.56,66.03 -25.06,98.99 24.42,-40.44 50.15,-80.13 77.49,-118.84 71.34,-101.01 148.68,-198.34 246.13,-275.55 153.12,-121.35 325.97,-194.32 524.38,-171.72 214.54,24.46 327.03,144.58 355.26,357.96 19.3,145.84 -2.88,292.54 -44.61,432.62 -27.19,91.25 -53.22,182.84 -84.18,272.91 -42.98,125.17 -93.22,247.82 -134.05,373.74 -26.33,81.14 -43.9,165.04 -61.14,248.47 -25.96,125.5 -34.17,253.12 -22.13,380.79 14.16,150.54 54.01,293.53 142.58,417.93 78.8,110.7 179.82,197.77 299.47,261.85 131.53,70.47 274.49,113.95 422.05,134.26 114.67,15.79 231.48,15.51 347,14.71 114.5,-0.79 226.84,-24.33 333.96,-64.22 83.63,-31.16 162.78,-72.69 219.52,-143.61 67.71,-84.64 96.11,-173.12 55.28,-277.43 -23.42,-59.75 -73.89,-91.67 -131.49,-113.84 -65.48,-25.22 -133.06,-45.37 -201.42,-61.02 -135.18,-30.91 -272.17,-53.12 -406.91,-86.08 -116.96,-28.61 -228.71,-67.89 -328.1,-137.71 -102.21,-71.81 -139.24,-212.18 -111.27,-330.21 25.32,-106.85 95.62,-179.7 180.25,-244.16 39.14,-29.83 80.75,-55.82 122.58,-81.53 -112.66,-81.98 -187.85,-191.25 -217.06,-333.17 -40.22,-195.36 -12.07,-377.9 83.41,-552.95 71.71,-131.47 171.72,-237.04 295.09,-321.02 95.19,-64.79 202.84,-107.37 315.57,-130 163.95,-32.93 329.32,-25.72 493.1,4.06 43.74,7.96 84.58,25.06 124.99,42.93 223.15,98.87 453.64,137.91 696.81,113.1 140.35,-14.34 276.32,-53.56 412.12,-89.86 63.84,-17.08 125.6,-42.02 188.19,-63.07 16.47,-5.54 33.11,-10.53 49.83,-15.2 116.69,-32.56 175.24,14.99 160.41,136.39 -6.46,53.06 -21.67,103.6 -34.34,155.3 -44.65,182.49 -85.96,365.82 -135.85,546.97 -40.99,148.92 -96.68,293.32 -137.6,442.2 -45.4,165.08 -103.41,331.29 -111.55,503.72 -2.05,43.13 3.5,84 45.63,104.21 29.06,13.95 59.94,8.02 88.4,-4.14 36.1,-15.4 70.94,-37.06 100.72,-62.61 126.18,-108.34 216.53,-247.78 297.3,-391.5 9.01,-16.04 14.84,-36.26 16.26,-54.6 14.02,-180.2 55.91,-354.45 119.49,-523.44 48.29,-128.3 112.23,-248.58 187.13,-363.25 68.03,-104.15 155.68,-189.44 248.3,-271.4 101.82,-90.15 221.09,-154.76 350.21,-196.48 123.05,-39.76 249.96,-44.4 376.72,-20.95 103.62,19.17 185.18,75.18 255.06,151.65 34.16,37.35 59.89,80.35 79.6,126.27 25.2,-64.19 70.9,-110.7 136.07,-139.83 89.26,-39.9 176.96,-83.2 265.36,-124.98 7.26,-3.44 14.69,-6.03 22.34,-8.41 91.84,-28.6 160.96,30.01 141.86,125.59 -8.7,43.57 -24.82,84.03 -38.84,125.94 -36.8,109.86 -76.17,218.87 -110.54,329.53 -42.99,138.48 -82.39,278.07 -122.67,417.38 -23.9,82.61 -50.36,164.79 -69.09,248.8 -23.85,107.19 -42.89,215.41 -60.34,323.8 -11.09,68.79 -15.91,138.51 -22.62,207.82 -1.39,14.26 -0.98,28.85 0.7,43.05 6.17,52.22 46.88,79.46 97.48,65.2 40.3,-11.34 76.83,-29.81 108.49,-57.39 83.5,-72.67 151.34,-160.07 214.45,-250.48 119.89,-171.72 218.41,-356.24 299.43,-549.22 14.26,-33.94 26.63,-68.97 35.36,-104.76 26.39,-108.26 58.65,-216.97 69.09,-328.3 5.23,-55.74 17.09,-119.06 0.09,-173.77 -11.5,-36.99 -35.23,-51.07 -72.29,-57.11 -16.52,-2.7 -33.11,-4.74 -49.67,-7.07l-38.15 -5.35 -7.32 -37.83c-18.01,-93.34 -1.39,-133.37 91.86,-160.71 135.95,-39.85 271.19,-82.07 406.62,-123.61 40.25,-12.33 79.89,-26.49 120.32,-38.26 21.44,-6.24 44.18,-9.78 66.54,-8.49 60.89,3.56 95.68,39.85 97.12,100.8 0.7,29.38 -1.08,59.11 -6.89,87.94 -21.36,106.15 -40.92,212.69 -67.77,317.62 -0.46,1.81 -0.92,3.6 -1.36,5.38 4.63,-7.93 9.3,-15.86 13.98,-23.75 61.97,-104.52 136.65,-202.04 217.64,-292.51 94.19,-105.22 216.91,-172.94 356.82,-194.12 126.46,-19.14 243.35,6.79 333.53,102.13 18.43,19.47 35.63,38.96 46.15,64.11 59.48,142.31 70.3,287.85 -7.25,425.98 -72.59,129.23 -186.58,202.58 -336.66,200.68 -2.82,-0.03 -7.38,-0.1 -11.85,0.04 -0.34,4.89 -0.43,9.99 -0.5,13.05 -1.96,93.47 37.61,159.42 122.18,199.67 55.25,26.29 114.13,45.35 172.48,63.91 13.76,-95.15 47.93,-183.78 88.76,-270.68 67.6,-143.84 149.37,-279.12 255.95,-397.66 135.89,-151.12 296.02,-267.05 486.93,-338.64 173.64,-65.11 352.62,-78.29 535.81,-56.35 121.11,14.51 230.28,57.63 325.88,133.87 64.39,51.36 104.8,117.46 129.89,195.31 36.28,112.55 30.84,227.82 -6.03,339.24 -31.95,96.6 -93.82,177.36 -168.06,245.66 -121.32,111.62 -265.63,182.96 -419.71,237.87 -231.93,82.68 -472.99,124.4 -718.34,137.25 -3.66,116.72 0.03,235.09 48.32,343.58 44.98,101.09 112.88,178.87 218.53,217.67 32.94,12.11 68.67,18.69 103.54,21.96 109.04,10.26 220.87,7.47 323.05,-36.13 101.67,-43.38 195.13,-101.79 275.26,-178.37 56.77,-54.25 107.87,-113.64 153.38,-177.61 8.61,-12.11 18.47,-22.67 28.3,-33.76 33.09,-37.27 81.81,-54.35 123.24,-16.74 22.65,20.56 39.7,51.86 43.63,82.25 3.93,30.23 -10.26,58.16 -26.98,82.18 -103.66,148.94 -217.83,288.12 -363.43,398.17 -233.58,176.56 -503.78,263.58 -796.74,227.1 -314.54,-39.15 -531.57,-206.83 -632.97,-511.05 -47.81,-143.48 -57.69,-291.68 -36.32,-441.83 -42.68,-8.67 -85.28,-16.65 -126.65,-30.79 -92.41,-31.53 -176.78,-79.32 -248.19,-146.28 -67.57,-63.36 -102.4,-146.49 -111.32,-237.65 -9.41,-96.4 8.87,-191.16 43.25,-281.12 10.04,-26.29 18.67,-53.1 27.23,-79.91 10.16,-31.8 0.13,-62.86 -14.19,-91.59 -6.33,-12.68 -28.41,-8.51 -38.92,-5.86 -61.91,15.58 -105.19,60.59 -144,108.61 -88.26,109.13 -154.17,233.68 -217.62,358.18 -57,111.86 -101.05,229.81 -147.9,346.12 -44.09,109.44 -82.93,220.87 -114.82,334.51 -49.27,175.52 -102.64,350.28 -139.83,528.9 -19.9,95.46 -47.2,113.49 -142.59,116.28 -94.35,2.74 -188.55,8.54 -282.83,13.09 -9.92,0.47 -18.19,1.76 -28.46,1.01 -64.89,-4.88 -98.14,-48.86 -82.71,-112.6 18.46,-76.29 37.43,-152.48 57.27,-228.46 11.8,-45.11 23.77,-90.2 35.88,-135.24 -32.19,47.31 -64.4,94.63 -96.45,142.01 -60.89,89.98 -140.32,165.72 -227.81,229.51 -152.32,111.06 -324.2,165.14 -510.13,109.68 -158.28,-47.22 -242.65,-183.55 -246.47,-344.38 -0.55,-22.68 0.16,-45.22 1.82,-67.62 -75.25,122.18 -170.79,228.91 -286.89,314.4 -96.17,70.82 -209.29,107.35 -327.81,116.75 -123.91,9.81 -243.4,-15.63 -347.03,-85.77 -53.39,-36.13 -96.83,-83.66 -140.03,-130.89 -71.03,-77.63 -93.5,-170.29 -116.78,-268.44 -36.56,50.76 -72.96,101.64 -109.31,152.52 -60.95,85.28 -137.94,159 -224.5,217.93 -137.95,93.9 -294.39,140.68 -460.94,108.66 -181.39,-34.88 -297.41,-169.75 -308,-353.37 -7.55,-130.61 20.79,-253.92 58.07,-378.03 52.3,-174.07 104.58,-348.16 155.99,-522.49 28.18,-95.65 54.77,-191.77 81.85,-287.75 22.12,-78.41 28.73,-158.93 21.02,-239.97 -4.02,-41.97 -34.35,-62.25 -75.03,-61.18 -139.18,3.71 -278.42,7.09 -417.65,4.91 -30.26,-0.47 -60.27,-3.75 -90.2,-8.05 29.12,56.66 41.51,118.92 46.98,183.85 11.93,141.7 -7.07,280.28 -65.62,410.49 -61.48,136.72 -148.68,252.45 -267.36,344.72 -179.51,139.57 -387.05,192.52 -611.77,188.92 -74.05,-1.19 -146.24,-4.71 -216.84,-29.65 -34.51,-12.22 -61.13,-1.2 -87.5,22.24 -19.27,17.12 -37.58,36.77 -51.65,58.43 -16.06,24.67 -7.25,55.88 13.43,74.91 36.54,33.65 83.59,49.4 131.31,59.49 83.39,17.6 167.31,32.54 251,48.58 77.34,14.83 155.04,27.77 231.93,45 69.64,15.58 139.54,30.23 206.36,55.92 93.86,36.07 182.99,73.56 254.45,147.45 124.82,129.09 164.79,285.24 130.18,460.05 -37.35,188.67 -150.72,325.11 -305.37,432.7 -137.68,95.74 -293.46,149.77 -456.12,185.57 -186.5,41.04 -377.2,51.82 -567.65,46.29 -238.45,-6.92 -474.16,-43.17 -697.36,-129.74 -178.5,-69.23 -345.06,-158.85 -480.51,-296.66 -244.9,-249.17 -334.48,-553.89 -302.38,-898.01 20.9,-223.98 90.3,-435.2 166,-645.65 45.11,-125.39 91.06,-250.68 129.11,-378.45 24.71,-82.98 44.03,-169.1 40.4,-256.24 -0.8,-19.27 -0.8,-43.6 -6.45,-61.96 -18.75,-60.84 -49.92,-75.27 -112.32,-73.02 -65.25,2.33 -122.77,26.63 -173.03,67.68 -134.29,109.71 -231.4,250.64 -309.59,404.02 -53.86,105.63 -103.38,213.47 -149.08,322.88 -34.04,81.48 -56.75,167.53 -87.83,250.22 -77.39,206.04 -117.3,424.1 -170.61,637.01 -30.5,121.88 -50.23,138.13 -175.59,138.59 -83.1,0.31 -166.09,6.52 -249.07,10.1 -15.66,0.68 -29.38,2.79 -45.4,1.35 -64.48,-5.86 -93.73,-50.48 -76.63,-112.36 27.47,-99.54 57,-198.51 83.2,-298.39 3.57,-13.67 6.95,-27.38 10.21,-41.11 -68.24,98.74 -144.56,191.38 -232.91,274.89 -98.99,93.56 -211.56,163.24 -345.91,191.9 -116.56,24.88 -230,12.45 -334.14,-47.68 -61.05,-35.27 -105.94,-86.14 -132.26,-151.58 -27.77,-69 -40.62,-140.28 -35.58,-212.58 -50.63,75.82 -107.23,147.38 -172.69,212.61 -100.06,99.78 -216.67,170.95 -356.36,198.44 -176.27,34.69 -342.42,3.53 -481.52,-114.11 -107.5,-90.92 -174.07,-207.05 -198.53,-344.69zm1418.78 -1101.25c5.37,-83.84 -0.67,-165.99 -29.68,-245.32 -27.69,-75.76 -77.91,-124.18 -155.15,-147.94 -87.93,-27.07 -165.24,4.09 -239.68,50.85 -110.79,69.59 -184.07,176.41 -249.35,287.04 -59.29,100.43 -100.28,210.3 -138.04,320.23 -58.84,171.32 -89.96,349.47 -99.2,530.17 -5.84,114.16 9.27,226.4 58.84,330.28 32.36,67.78 107.57,115.64 183.6,105.57 75.12,-9.95 135.13,-47.92 189.17,-99.09 137.85,-130.61 233.43,-292.33 307.39,-465.82 39.26,-92.04 68.4,-188.22 99.83,-283.12 40.41,-121.94 73.09,-249.71 72.14,-379.01l-0.01 -1.93 0.13 -1.91zm7633.77 -21.24c-1.79,-44.34 -2.19,-88.94 -6.54,-133.12 -6.66,-67.29 -31.34,-129.96 -78.26,-179.4 -72.38,-76.31 -177.36,-87 -270.73,-43.84 -101.38,46.86 -181.24,120.16 -246.76,209.66 -118.71,162.18 -189.22,348.92 -241.37,541.5 -19.17,70.75 -32.2,143.07 -46.48,214.91 -32.97,165.87 -45.23,331.23 13.86,493.1 20.21,55.39 51.96,103.78 105.47,131.62 76.77,39.91 150.33,19.63 219.91,-24.74 128.71,-82.13 211.37,-210.48 285.55,-340.32 86.12,-150.66 153.28,-311.07 198.53,-478.68 34.35,-127.26 72.26,-257.43 66.82,-390.68zm-3249.7 -101.32c-3.54,-41.17 -5.16,-82.87 -11.55,-123.69 -3.05,-19.58 -14.17,-42.53 -21.23,-61.23 -45.44,-120.13 -140.23,-149.68 -258.91,-117.92 -101.58,27.19 -166.12,104.83 -220.96,189.68 -42.85,66.28 -68.52,142.62 -93.06,217.07 -49.4,150 -71.9,303.64 -36.83,459.52 12.75,56.72 38.92,105.02 86.52,139.73 79.57,57.97 223.38,49.25 294.69,-19.76 52.3,-50.6 102.38,-105.11 131.89,-172.57 24.34,-55.61 46.7,-112.08 68.64,-168.68 42.52,-109.78 58.84,-224.95 60.8,-342.14zm6368.31 538.61c84.08,-16.22 169.13,-30.08 251.44,-53.76 73.07,-21.02 145.11,-48.64 212.57,-83.81 117.11,-61.02 217.88,-140.95 282.91,-257.95 57.43,-103.33 85.01,-211.41 57.55,-328.5 -20.46,-87.25 -102.4,-139.36 -190.21,-123.42 -89.55,16.26 -167.25,55.43 -236.27,114.54 -88.82,76.08 -150.03,175.41 -207.69,275.68 -65.05,113.18 -107.37,237.74 -144.82,362.26 -9.41,31.31 -17.55,63.11 -25.48,94.96z"/>
 </g>
</svg>
