<?xml version="1.0" encoding="UTF-8"?>
<!DOCTYPE svg PUBLIC "-//W3C//DTD SVG 1.1//EN" "http://www.w3.org/Graphics/SVG/1.1/DTD/svg11.dtd">
<!-- Creator: CorelDRAW -->
<svg xmlns="http://www.w3.org/2000/svg" xml:space="preserve" width="200mm" height="47.4847mm" version="1.1" style="shape-rendering:geometricPrecision; text-rendering:geometricPrecision; image-rendering:optimizeQuality; fill-rule:evenodd; clip-rule:evenodd"
viewBox="0 0 18518.67 4396.77"
 xmlns:xlink="http://www.w3.org/1999/xlink"
 xmlns:xodm="http://www.corel.com/coreldraw/odm/2003">
 <defs>
  <style type="text/css">
   <![CDATA[
    .fil0 {fill:#DC0B1C}
   ]]>
  </style>
 </defs>
 <g id="Camada_x0020_1">
  <metadata id="CorelCorpID_0Corel-Layer"/>
  <path class="fil0" d="M11772.42 687.32c-40.93,-8.69 -77.46,-11.66 -117.86,-26.65 -150.03,-55.64 -230.83,-233.06 -179.53,-383.82 44.07,-129.5 125.29,-223.37 259.12,-263.17 189.3,-56.28 384.54,67.09 413.25,262.8 26.05,177.48 -82.33,333.91 -245.33,396.96 -35.78,13.84 -73.7,10.89 -111.09,14.85l-9.36 0.99 -9.2 -1.95zm-8055.39 2222.79c-91.3,139.86 -199.23,266.49 -330.57,370.73 -148.53,117.88 -323.65,164.44 -511.37,141.03 -81.89,-10.21 -160.03,-40.99 -222.54,-95.69 -80.09,-70.05 -120.73,-163.38 -134.91,-267.41 -13.95,-102.48 -0.03,-204.78 28.83,-303.45 42.25,-144.37 88.58,-287.48 136.39,-430.07 29.12,-86.92 66.62,-170.72 95.87,-257.54 48.01,-142.54 106.87,-286.14 125.19,-436.47 5.99,-49.25 7.05,-99.68 2.46,-149.09 -4.48,-48.37 -33.11,-82.47 -81.72,-90.29 -82.59,-13.28 -150.75,19.76 -213.77,70.44 -95.33,76.68 -164.75,179.76 -230.94,281.23 -112.52,172.55 -192.5,363.73 -269.13,554.15 -87.66,217.84 -153.21,443.52 -209.27,671.31 -24.32,98.85 -49.62,197.47 -74.23,296.24 -22.07,88.51 -62.02,117.5 -152.23,119.88 -105.87,2.78 -211.63,7.75 -317.48,10.89 -25.56,0.75 -50.53,-3.35 -75.89,-5.4l-62.15 -5.01 8.2 -61.83c2.67,-19.97 3.3,-39.54 8.71,-59.19 50.35,-182.82 101.75,-365.36 151.95,-548.23 40.13,-146.27 79.1,-292.85 118.45,-439.33 31.92,-118.86 66.75,-237.03 94.45,-356.98 20.35,-88.14 31.27,-178.39 46.18,-267.57 2.18,-13.06 4.38,-26.57 4.82,-39.8 1.33,-41.35 7.39,-86.75 2.23,-127.68 -10.99,-86.87 -54.13,-108.08 -137.24,-89.81 -70.05,15.4 -125.19,53.51 -176.01,102.69 -124.2,120.11 -212.59,266.38 -287.46,420.81 -48.38,99.76 -101.44,197.49 -145.72,299.22 -39.14,89.85 -71.37,182.59 -102.33,275.53 -36.81,110.5 -71.87,221.66 -102.15,334.17 -37.21,138.29 -68.57,278.07 -102.4,417.21 -2.6,10.7 -4.88,21.37 -8.03,31.94 -25.8,86.79 -54,105.88 -143.45,108.44 -109.66,3.14 -219.27,7.5 -328.86,12.31 -98.96,4.35 -138.28,-41.46 -113.84,-138.38 24.47,-96.98 51.61,-193.24 77.16,-289.92 38.26,-144.59 77.33,-288.98 113.96,-434.01 40.49,-160.25 80.71,-320.59 117.18,-481.82 30.12,-133.07 58.04,-266.72 80.19,-401.37 9.2,-55.97 6.41,-115.19 2.25,-171.59 -3.96,-53.64 -36.09,-80.27 -87.93,-87.71 -16.38,-2.34 -32.82,-4.2 -49.25,-6.28l-42 -5.34 -8.56 -41.48c-20.53,-99.6 2.08,-150.13 102.87,-177.02 172.53,-46.04 348.41,-86.56 513.31,-156.56 35.86,-15.19 74.41,-25.01 112.93,-30.51 86.57,-12.34 142.17,39.75 129.54,127.45 -17.06,118.6 -29.84,237.84 -59.52,354.19 -12.16,47.68 -24.94,95.17 -38.13,142.56 1.47,-2.56 2.95,-5.1 4.43,-7.64 90.76,-156.09 200.25,-300.49 334.49,-421.83 101.18,-91.44 220.68,-152.77 354.06,-181.39 120.06,-25.75 236.04,-19.88 350.89,24.91 103.65,40.42 162.06,120.66 198.35,222.39 33.23,93.09 38.71,187.77 33.49,283.83 30.49,-47.98 62.79,-94.84 97.73,-140.04 107.38,-138.96 230.19,-257.82 389.27,-335.89 151.15,-74.22 312.04,-94.86 474.19,-44.88 119.1,36.68 201.67,123.24 244.74,238.92 23.33,62.74 32.97,127.22 35.7,193.87 7.13,175.57 -28.34,344.29 -86.18,509.22 -57.37,163.59 -123.54,324.07 -178.28,488.59 -52.75,158.53 -108.7,318.88 -128.02,485.71 -2.93,25.46 -5.11,53.61 -0.91,78.99 9.21,55.58 55.24,83.43 109.37,71.12 74.97,-17.04 135.67,-63.02 189.17,-116.25 101.63,-101.18 184.4,-218.39 256.79,-341.77 22.74,-38.76 32.36,-80.45 38.01,-124.62 12.23,-95.58 33.31,-189.59 47.75,-284.78 20.45,-134.99 65.88,-262.59 125.56,-384.96 42.88,-87.96 86.1,-175.96 139.09,-258.45 95.32,-148.32 213.21,-279.32 356.67,-382.5 127.52,-91.72 265.75,-159.25 421.95,-184.58 111.4,-18.07 221.6,-21.99 332.23,3.55 122.29,28.24 220.88,96.9 290.08,201.43 20.74,31.32 40.31,62.76 56.9,95.4 29.95,-79.38 93.26,-128.05 173.96,-165.04 61.57,-28.21 121.36,-60.12 182.93,-88.4 38.88,-17.87 78.65,-34.02 119.72,-46.15 84.51,-24.96 147.75,23.05 144.82,111.35 -0.9,27.51 -6.84,54.98 -15.51,81.04 -21.93,65.93 -47.29,130.72 -68.42,196.9 -64.86,203.1 -131.16,405.76 -191.41,610.3 -45.09,153.09 -89.8,306.9 -119.96,463.77 -29.69,154.51 -69.04,310.84 -70.49,468.96 -0.28,31.03 -0.59,64.24 5.73,94.65 8.47,40.96 42.31,59.63 82.24,49.9 80.65,-19.65 148.21,-59.42 204.45,-120.55 131.08,-142.51 239.34,-302.67 329.53,-473.73 63.65,-120.68 119.9,-245.09 176.71,-369.07 12.36,-26.96 16.8,-64.32 24.08,-93.53 40.86,-164.24 85.43,-331.4 76.51,-502.3 -1.68,-32.07 -7.5,-61.86 -31.48,-84.88 -13.3,-12.8 -28.23,-25.87 -47.75,-25.62 -62.37,0.83 -111.6,-23.56 -115.83,-93.85 -3.79,-63.25 24.83,-114.4 86.61,-134.57 22.6,-7.36 45.05,-10.06 67.69,-15.95 160.24,-41.55 319.91,-86.69 474.42,-146.5 36.3,-14.03 75.06,-22.74 113.7,-27.15 84.88,-9.65 137.33,38.73 130.59,124.67 -4.57,58.07 -15.11,115.37 -26.49,172.43 -14.24,71.4 -30.49,142.4 -48.09,213.05 -9.02,36.27 -18.18,72.51 -27.51,108.7 26.81,-44.41 55.07,-87.99 85.09,-130.5 78.34,-110.91 163.27,-217.79 270.27,-302.57 168.13,-133.25 357.94,-213.37 575.8,-188.56 235.58,26.86 359.11,158.76 390.1,393.07 21.2,160.14 -3.16,321.23 -48.98,475.05 -29.86,100.2 -58.44,200.77 -92.43,299.67 -47.19,137.45 -102.37,272.13 -147.2,410.39 -28.91,89.1 -48.2,181.22 -67.14,272.84 -28.51,137.81 -37.52,277.94 -24.31,418.14 15.55,165.3 59.31,322.32 156.56,458.92 86.53,121.56 197.45,217.17 328.84,287.53 144.43,77.38 301.41,125.12 463.44,147.43 125.92,17.34 254.19,17.03 381.04,16.15 125.73,-0.86 249.09,-26.71 366.71,-70.52 91.83,-34.22 178.75,-79.82 241.05,-157.7 74.35,-92.94 105.54,-190.09 60.71,-304.64 -25.72,-65.61 -81.14,-100.66 -144.38,-125.01 -71.91,-27.69 -146.11,-49.82 -221.17,-67.01 -148.44,-33.94 -298.86,-58.33 -446.82,-94.52 -128.43,-31.42 -251.14,-74.54 -360.28,-151.22 -112.23,-78.86 -152.9,-232.99 -122.18,-362.59 27.81,-117.33 105,-197.32 197.93,-268.11 42.98,-32.75 88.67,-61.29 134.6,-89.52 -123.71,-90.03 -206.28,-210 -238.35,-365.85 -44.17,-214.51 -13.25,-414.96 91.59,-607.17 78.74,-144.37 188.56,-260.29 324.03,-352.5 104.53,-71.14 222.74,-117.9 346.52,-142.75 180.03,-36.16 361.62,-28.24 541.45,4.46 48.02,8.74 92.87,27.51 137.25,47.15 245.04,108.57 498.13,151.43 765.15,124.2 154.12,-15.74 303.42,-58.82 452.54,-98.67 70.1,-18.75 137.92,-46.14 206.65,-69.25 18.09,-6.09 36.35,-11.56 54.72,-16.69 128.14,-35.75 192.42,16.46 176.14,149.77 -7.1,58.26 -23.8,113.76 -37.7,170.53 -49.03,200.38 -94.39,401.7 -149.17,600.61 -45.01,163.53 -106.16,322.09 -151.09,485.57 -49.85,181.27 -113.55,363.78 -122.49,553.13 -2.25,47.36 3.84,92.24 50.11,114.43 31.91,15.32 65.82,8.81 97.07,-4.54 39.64,-16.91 77.9,-40.7 110.6,-68.75 138.55,-118.97 237.76,-272.08 326.45,-429.89 9.9,-17.61 16.3,-39.82 17.86,-59.96 15.4,-197.88 61.39,-389.21 131.21,-574.78 53.02,-140.88 123.24,-272.96 205.48,-398.88 74.71,-114.36 170.95,-208.02 272.65,-298.01 111.81,-99 242.78,-169.94 384.55,-215.75 135.12,-43.66 274.47,-48.76 413.66,-23 113.78,21.05 203.35,82.55 280.07,166.52 37.51,41.01 65.77,88.23 87.4,138.65 27.68,-70.49 77.85,-121.56 149.41,-153.55 98.02,-43.81 194.31,-91.36 291.39,-137.24 7.98,-3.78 16.13,-6.63 24.53,-9.23 100.85,-31.4 176.75,32.95 155.78,137.9 -9.56,47.85 -27.25,92.27 -42.65,138.29 -40.41,120.63 -83.64,240.33 -121.38,361.84 -47.21,152.07 -90.46,305.34 -134.7,458.31 -26.24,90.71 -55.3,180.95 -75.86,273.2 -26.19,117.7 -47.1,236.54 -66.26,355.56 -12.18,75.54 -17.47,152.1 -24.84,228.21 -1.53,15.66 -1.07,31.68 0.77,47.28 6.77,57.34 51.48,87.26 107.04,71.6 44.25,-12.45 84.36,-32.74 119.13,-63.02 91.69,-79.8 166.18,-175.77 235.48,-275.04 131.65,-188.56 239.83,-391.18 328.8,-603.09 15.66,-37.26 29.24,-75.73 38.83,-115.03 28.98,-118.87 64.4,-238.25 75.86,-360.49 5.75,-61.21 18.77,-130.74 0.1,-190.81 -12.63,-40.62 -38.68,-56.08 -79.38,-62.71 -18.14,-2.96 -36.35,-5.21 -54.54,-7.77l-41.89 -5.88 -8.04 -41.55c-19.78,-102.5 -1.53,-146.45 100.87,-176.47 149.28,-43.76 297.78,-90.12 446.5,-135.74 44.2,-13.54 87.73,-29.09 132.12,-42.02 23.54,-6.85 48.51,-10.74 73.06,-9.33 66.86,3.91 105.07,43.76 106.65,110.68 0.77,32.27 -1.19,64.91 -7.57,96.57 -23.46,116.56 -44.93,233.54 -74.41,348.77 -0.5,1.99 -1.01,3.96 -1.5,5.91 5.08,-8.71 10.21,-17.42 15.35,-26.08 68.05,-114.77 150.05,-221.86 238.98,-321.19 103.42,-115.54 238.18,-189.9 391.81,-213.16 138.86,-21.02 267.21,7.46 366.24,112.15 20.24,21.37 39.12,42.78 50.68,70.39 65.31,156.27 77.2,316.08 -7.96,467.76 -79.7,141.91 -204.88,222.44 -369.67,220.36 -3.09,-0.03 -8.11,-0.11 -13.01,0.05 -0.37,5.37 -0.47,10.97 -0.55,14.33 -2.15,102.64 41.3,175.05 134.16,219.25 60.67,28.86 125.32,49.8 189.39,70.18 15.11,-104.48 52.63,-201.8 97.46,-297.23 74.23,-157.94 164.02,-306.49 281.05,-436.66 149.22,-165.94 325.05,-293.24 534.68,-371.85 190.66,-71.5 387.21,-85.97 588.35,-61.88 132.99,15.94 252.87,63.28 357.84,147 70.7,56.39 115.08,128.98 142.62,214.47 39.84,123.59 33.86,250.17 -6.63,372.51 -35.08,106.08 -103.02,194.75 -184.54,269.75 -133.21,122.57 -291.68,200.9 -460.87,261.2 -254.68,90.79 -519.38,136.6 -788.79,150.71 -4.02,128.17 0.03,258.14 53.05,377.28 49.39,111.01 123.95,196.41 239.96,239.01 36.17,13.3 75.41,20.53 113.7,24.11 119.74,11.27 242.53,8.2 354.73,-39.67 111.64,-47.63 214.27,-111.77 302.26,-195.86 62.33,-59.57 118.45,-124.78 168.43,-195.03 9.46,-13.3 20.28,-24.89 31.08,-37.07 36.34,-40.93 89.83,-59.68 135.33,-18.38 24.87,22.58 43.6,56.95 47.91,90.32 4.31,33.19 -11.27,63.86 -29.63,90.24 -113.83,163.54 -239.19,316.37 -399.07,437.22 -256.48,193.87 -553.19,289.43 -874.87,249.37 -345.38,-42.99 -583.7,-227.11 -695.05,-561.17 -52.5,-157.55 -63.34,-320.28 -39.88,-485.16 -46.87,-9.52 -93.64,-18.28 -139.08,-33.81 -101.47,-34.63 -194.12,-87.09 -272.53,-160.63 -74.2,-69.58 -112.44,-160.86 -122.24,-260.96 -10.34,-105.85 9.74,-209.91 47.49,-308.69 11.02,-28.86 20.5,-58.31 29.91,-87.75 11.15,-34.92 0.15,-69.02 -15.58,-100.57 -6.95,-13.92 -31.19,-9.34 -42.73,-6.43 -67.98,17.11 -115.5,66.53 -158.12,119.26 -96.91,119.83 -169.29,256.6 -238.97,393.31 -62.59,122.83 -110.96,252.35 -162.4,380.06 -48.42,120.17 -91.07,242.53 -126.08,367.31 -54.1,192.73 -112.7,384.63 -153.55,580.77 -21.85,104.82 -51.83,124.62 -156.58,127.68 -103.6,3.01 -207.04,9.38 -310.56,14.37 -10.89,0.52 -19.97,1.94 -31.26,1.11 -71.26,-5.36 -107.77,-53.66 -90.82,-123.64 20.27,-83.77 41.11,-167.43 62.89,-250.87 12.96,-49.54 26.1,-99.04 39.4,-148.5 -35.34,51.95 -70.72,103.91 -105.91,155.94 -66.86,98.8 -154.08,181.97 -250.15,252.02 -167.25,121.95 -356,181.34 -560.16,120.44 -173.8,-51.85 -266.45,-201.56 -270.65,-378.15 -0.6,-24.91 0.18,-49.65 2,-74.25 -82.63,134.16 -187.54,251.35 -315.02,345.24 -105.6,77.77 -229.82,117.88 -359.95,128.2 -136.06,10.78 -267.28,-17.16 -381.07,-94.18 -58.62,-39.67 -106.32,-91.86 -153.76,-143.73 -77.99,-85.24 -102.67,-186.99 -128.23,-294.77 -40.15,55.74 -80.11,111.61 -120.03,167.48 -66.92,93.64 -151.46,174.6 -246.52,239.31 -151.48,103.11 -323.26,154.48 -506.14,119.31 -199.18,-38.31 -326.58,-186.4 -338.21,-388.02 -8.29,-143.42 22.82,-278.82 63.77,-415.11 57.43,-191.14 114.84,-382.31 171.29,-573.74 30.95,-105.03 60.14,-210.57 89.88,-315.97 24.29,-86.1 31.55,-174.52 23.08,-263.5 -4.41,-46.09 -37.72,-68.36 -82.39,-67.19 -152.83,4.07 -305.73,7.78 -458.61,5.39 -33.23,-0.52 -66.18,-4.12 -99.04,-8.84 31.97,62.22 45.58,130.58 51.59,201.88 13.1,155.6 -7.77,307.76 -72.05,450.74 -67.51,150.13 -163.27,277.21 -293.58,378.53 -197.11,153.25 -425.01,211.4 -671.77,207.45 -81.32,-1.3 -160.58,-5.18 -238.1,-32.56 -37.9,-13.41 -67.12,-1.32 -96.08,24.42 -21.16,18.8 -41.27,40.37 -56.72,64.16 -17.63,27.09 -7.96,61.36 14.75,82.26 40.13,36.95 91.78,54.24 144.19,65.33 91.57,19.32 183.71,35.73 275.61,53.35 84.93,16.28 170.25,30.49 254.68,49.41 76.46,17.11 153.22,33.19 226.59,61.41 103.07,39.61 200.94,80.78 279.4,161.92 137.06,141.75 180.95,313.22 142.95,505.17 -41.01,207.17 -165.5,356.99 -335.32,475.13 -151.19,105.13 -322.24,164.45 -500.85,203.77 -204.8,45.06 -414.2,56.9 -623.32,50.82 -261.84,-7.6 -520.67,-47.41 -765.75,-142.46 -196,-76.02 -378.9,-174.43 -527.63,-325.75 -268.92,-273.61 -367.28,-608.22 -332.04,-986.08 22.95,-245.95 99.16,-477.88 182.28,-708.97 49.54,-137.69 99.99,-275.27 141.78,-415.57 27.14,-91.12 48.35,-185.68 44.36,-281.37 -0.88,-21.16 -0.88,-47.88 -7.08,-68.03 -20.59,-66.81 -54.81,-82.65 -123.33,-80.18 -71.65,2.56 -134.81,29.24 -190,74.32 -147.46,120.47 -254.09,275.22 -339.95,443.65 -59.14,115.99 -113.52,234.41 -163.71,354.55 -37.38,89.47 -62.32,183.96 -96.44,274.76 -84.98,226.25 -128.8,465.69 -187.34,699.48 -33.49,133.83 -55.15,151.68 -192.81,152.18 -91.25,0.34 -182.38,7.16 -273.49,11.09 -17.19,0.75 -32.27,3.06 -49.85,1.48 -70.8,-6.43 -102.92,-55.43 -84.15,-123.38 30.17,-109.3 62.59,-217.98 91.36,-327.66 3.92,-15.01 7.64,-30.07 11.22,-45.14 -74.93,108.42 -158.74,210.15 -255.75,301.85 -108.7,102.74 -232.31,179.25 -379.83,210.72 -127.99,27.32 -252.56,13.67 -366.91,-52.35 -67.04,-38.73 -116.33,-94.58 -145.23,-166.44 -30.49,-75.76 -44.61,-154.04 -39.07,-233.43 -55.59,83.25 -117.75,161.83 -189.62,233.46 -109.87,109.56 -237.92,187.72 -391.31,217.9 -193.56,38.09 -376.01,3.87 -528.74,-125.3 -118.04,-99.84 -191.14,-227.36 -218,-378.5zm1557.93 -1209.25c5.89,-92.06 -0.73,-182.26 -32.59,-269.38 -30.41,-83.19 -85.55,-136.36 -170.36,-162.45 -96.55,-29.73 -181.45,4.49 -263.19,55.84 -121.66,76.42 -202.13,193.71 -273.8,315.19 -65.1,110.28 -110.11,230.92 -151.58,351.64 -64.61,188.13 -98.78,383.74 -108.93,582.17 -6.41,125.35 10.17,248.6 64.61,362.67 35.54,74.43 118.12,126.98 201.6,115.93 82.49,-10.92 148.39,-52.62 207.73,-108.81 151.37,-143.42 256.32,-321 337.54,-511.5 43.11,-101.06 75.11,-206.68 109.63,-310.89 44.38,-133.9 80.26,-274.19 79.22,-416.18l-0.02 -2.12 0.15 -2.1zm8382.43 -23.33c-1.97,-48.69 -2.41,-97.66 -7.18,-146.17 -7.31,-73.89 -34.41,-142.71 -85.94,-197 -79.48,-83.79 -194.75,-95.53 -297.28,-48.14 -111.32,51.46 -199.02,131.94 -270.95,230.22 -130.35,178.08 -207.77,383.14 -265.05,594.61 -21.05,77.69 -35.36,157.1 -51.04,235.99 -36.21,182.13 -49.67,363.72 15.22,541.45 22.19,60.82 57.06,113.96 115.81,144.53 84.29,43.82 165.07,21.55 241.47,-27.17 141.34,-90.19 232.1,-231.12 313.56,-373.69 94.57,-165.43 168.31,-341.58 218,-525.63 37.72,-139.74 79.35,-282.68 73.37,-429zm-3568.4 -111.25c-3.89,-45.21 -5.67,-91 -12.68,-135.82 -3.35,-21.51 -15.56,-46.71 -23.31,-67.23 -49.9,-131.91 -153.99,-164.36 -284.3,-129.49 -111.55,29.86 -182.41,115.11 -242.63,208.28 -47.05,72.79 -75.24,156.61 -102.19,238.36 -54.24,164.72 -78.96,333.42 -40.44,504.58 14,62.29 42.73,115.32 95.01,153.43 87.37,63.65 245.28,54.08 323.59,-21.7 57.43,-55.56 112.43,-115.42 144.82,-189.49 26.73,-61.06 51.28,-123.07 75.37,-185.23 46.69,-120.55 64.61,-247.01 66.76,-375.7zm6992.86 591.43c92.32,-17.81 185.72,-33.03 276.1,-59.03 80.24,-23.08 159.34,-53.41 233.41,-92.03 128.59,-67.01 239.24,-154.77 310.66,-283.25 63.07,-113.47 93.35,-232.14 63.2,-360.72 -22.47,-95.8 -112.44,-153.03 -208.87,-135.53 -98.33,17.86 -183.65,60.87 -259.45,125.77 -97.53,83.55 -164.75,192.62 -228.06,302.72 -71.43,124.28 -117.9,261.06 -159.02,397.79 -10.34,34.38 -19.27,69.3 -27.98,104.27z"/>
 </g>
</svg>
